<mxfile host="app.diagrams.net" modified="2024-07-22T18:12:26.481Z" agent="Mozilla/5.0 (X11; Ubuntu; Linux x86_64; rv:128.0) Gecko/20100101 Firefox/128.0" etag="7_OjtAxKuHYkWDKpjcvd" version="24.7.1" type="github">
  <diagram name="Page-1" id="n7Fu1dChlO2mF_LkfaYX">
    <mxGraphModel dx="409" dy="242" grid="1" gridSize="10" guides="1" tooltips="1" connect="1" arrows="1" fold="1" page="1" pageScale="1" pageWidth="850" pageHeight="1100" math="0" shadow="0">
      <root>
        <mxCell id="0" />
        <mxCell id="1" parent="0" />
        <mxCell id="61qi8pVw7JVg1OZqUkDZ-4" value="" style="shape=or;whiteSpace=wrap;html=1;rotation=90;" vertex="1" parent="1">
          <mxGeometry x="647.5" y="172.5" width="15" height="20" as="geometry" />
        </mxCell>
        <mxCell id="61qi8pVw7JVg1OZqUkDZ-5" value="" style="endArrow=classic;html=1;rounded=0;entryX=0.013;entryY=0.682;entryDx=0;entryDy=0;entryPerimeter=0;" edge="1" parent="1" target="61qi8pVw7JVg1OZqUkDZ-4">
          <mxGeometry width="50" height="50" relative="1" as="geometry">
            <mxPoint x="651" y="140" as="sourcePoint" />
            <mxPoint x="680" y="150" as="targetPoint" />
          </mxGeometry>
        </mxCell>
        <mxCell id="61qi8pVw7JVg1OZqUkDZ-6" value="" style="endArrow=classic;html=1;rounded=0;entryX=0;entryY=0.25;entryDx=0;entryDy=0;entryPerimeter=0;" edge="1" parent="1" target="61qi8pVw7JVg1OZqUkDZ-4">
          <mxGeometry width="50" height="50" relative="1" as="geometry">
            <mxPoint x="660" y="150" as="sourcePoint" />
            <mxPoint x="680" y="170" as="targetPoint" />
            <Array as="points">
              <mxPoint x="660" y="150" />
            </Array>
          </mxGeometry>
        </mxCell>
      </root>
    </mxGraphModel>
  </diagram>
</mxfile>
